<svg xmlns="http://www.w3.org/2000/svg" version="1.1" viewBox="-5.0 -10.0 110.0 135.0">
 <path d="m90.625 31.25c0-4.7891-2.7266-9.0703-6.9414-11.152-2.1836-8.1211-9.5156-13.848-18.059-13.848h-9.375c-1.7266 0-3.125 1.3984-3.125 3.125v81.25c0 1.7266 1.3984 3.125 3.125 3.125h9.375c8.543 0 15.875-5.7266 18.059-13.848 4.2148-2.082 6.9414-6.3633 6.9414-11.152 0-1.9961-0.51172-3.8594-1.3516-5.5352 2.8945-3.7695 4.4766-8.3828 4.4766-13.215s-1.582-9.4414-4.4766-13.215c0.83984-1.6758 1.3516-3.5391 1.3516-5.5352zm-14.961 43.25c-1.5859-0.6875-3.4258 0.054688-4.1016 1.6406-0.67969 1.5859 0.054688 3.4258 1.6406 4.1016 1.0547 0.45312 2.1641 0.69531 3.2891 0.84375-2.1406 3.8711-6.2305 6.4141-10.867 6.4141h-6.25v-25.082c2.6172 1.9844 5.8438 3.207 9.375 3.207 1.7266 0 3.125-1.3984 3.125-3.125s-1.3984-3.125-3.125-3.125c-5.168 0-9.375-4.207-9.375-9.375s4.207-9.375 9.375-9.375c1.7266 0 3.125-1.3984 3.125-3.125s-1.3984-3.125-3.125-3.125c-3.5312 0-6.7578 1.2227-9.375 3.207v-25.082h6.25c4.6328 0 8.7227 2.543 10.867 6.4102-1.1289 0.14844-2.2422 0.39844-3.2891 0.84766-1.5859 0.67969-2.3203 2.5156-1.6406 4.1016 0.6875 1.6055 2.5469 2.3047 4.1016 1.6406 3.9766-1.6914 8.7109 1.3867 8.7109 5.75 0 3.4453-2.8047 6.25-6.25 6.25-1.7266 0-3.125 1.3984-3.125 3.125s1.3984 3.125 3.125 3.125c2.5664 0 4.9492-0.78125 6.9375-2.1133 1.5859 2.4727 2.4375 5.3594 2.4375 8.3633 0 3.0078-0.85156 5.8906-2.4375 8.3633-1.9883-1.332-4.3711-2.1133-6.9375-2.1133-1.7266 0-3.125 1.3984-3.125 3.125s1.3984 3.125 3.125 3.125c3.4453 0 6.25 2.8047 6.25 6.25 0 4.4023-4.6875 7.4922-8.7109 5.75z"/>
 <path d="m10.727 63.215c-0.83984 1.6758-1.3516 3.5391-1.3516 5.5352 0 4.7891 2.7266 9.0703 6.9414 11.152 2.1836 8.1211 9.5156 13.848 18.059 13.848h9.375c1.7266 0 3.125-1.3984 3.125-3.125v-81.25c0-1.7266-1.3984-3.125-3.125-3.125h-9.375c-8.543 0-15.875 5.7266-18.059 13.848-4.2148 2.082-6.9414 6.3633-6.9414 11.152 0 1.9961 0.51172 3.8594 1.3516 5.5352-2.8945 3.7734-4.4766 8.3828-4.4766 13.215s1.582 9.4453 4.4766 13.215zm13.609-37.715c1.5508 0.66406 3.4141-0.039062 4.1016-1.6406 0.67969-1.5859-0.054688-3.4219-1.6406-4.1016-1.0508-0.45312-2.1641-0.70312-3.2891-0.84766 2.1445-3.8672 6.2344-6.4102 10.867-6.4102h6.25v25.082c-2.6172-1.9844-5.8438-3.207-9.375-3.207-1.7266 0-3.125 1.3984-3.125 3.125s1.3984 3.125 3.125 3.125c5.168 0 9.375 4.207 9.375 9.375s-4.207 9.375-9.375 9.375c-1.7266 0-3.125 1.3984-3.125 3.125s1.3984 3.125 3.125 3.125c3.5312 0 6.7578-1.2227 9.375-3.207v25.082h-6.25c-4.6367 0-8.7266-2.543-10.867-6.4141 1.1289-0.14844 2.2383-0.39063 3.2891-0.84375 1.5859-0.67969 2.3203-2.5156 1.6406-4.1016s-2.5195-2.3242-4.1016-1.6406c-4.0156 1.7344-8.7109-1.4453-8.7109-5.75 0-3.4453 2.8047-6.25 6.25-6.25 1.7266 0 3.125-1.3984 3.125-3.125s-1.3984-3.125-3.125-3.125c-2.5664 0-4.9492 0.78125-6.9375 2.1133-1.5859-2.4727-2.4375-5.3555-2.4375-8.3633 0-3.0039 0.85156-5.8906 2.4375-8.3633 1.9883 1.332 4.3711 2.1133 6.9375 2.1133 1.7266 0 3.125-1.3984 3.125-3.125s-1.3984-3.125-3.125-3.125c-3.4453 0-6.25-2.8047-6.25-6.25 0-4.4023 4.6797-7.4688 8.7109-5.75z"/>
<text x="0.0" y="117.5" font-size="5.0" font-weight="bold" font-family="Arbeit Regular, Helvetica, Arial-Unicode, Arial, Sans-serif" fill="#000000">Created by Athok</text><text x="0.0" y="122.5" font-size="5.0" font-weight="bold" font-family="Arbeit Regular, Helvetica, Arial-Unicode, Arial, Sans-serif" fill="#000000">from Noun Project</text></svg>